<svg xmlns="http://www.w3.org/2000/svg" width="150" height="129" viewBox="0 0 150 129" fill="none">
  <path d="M94.7914 94.3101V49.6321H127.022V94.3101H94.7914ZM102.127 86.9744H119.686V56.9678H102.127V86.9744ZM22.978 94.3101V68.7763H47.8729V56.9678H22.978V49.6321H55.2086V75.166H30.3137V86.9744H55.2086V94.3101H22.978ZM71.3322 62.5526V55.2169H78.6678V62.5526H71.3322ZM71.3322 89.688V82.344H78.6678V89.688H71.3322ZM0 128.3V16.5966H37.6577V0H45.956V16.5966H104.044V0H112.342V16.5966H150V128.3H0ZM8.2983 120.002H71.3322V109.479H78.6678V120.018H141.702V24.8866H78.6678V35.4254H71.3322V24.8866H8.2983V120.002Z" fill="#E153ED"/>
</svg>