<svg xmlns="http://www.w3.org/2000/svg" width="100" height="121" viewBox="0 0 100 121" fill="none">
<path d="M0.58841 0V5.2924C0.284057 45.8735 -5.01861 32.2112 23.1223 60.4075C-5.53097 88.6434 0.58841 75.4409 0.58841 115.523V120.815H99.4069V115.523C99.7079 74.9518 105.043 88.5361 76.9144 60.4075C105.55 32.2538 99.4069 45.3478 99.4069 5.2924V0H0.58841ZM11.1731 10.5847H88.8221C90.2676 40.429 86.97 35.3014 65.6266 56.6449L61.9054 60.4075L65.6266 64.1701C89.4631 87.7391 88.8221 79.6014 88.8221 110.23H11.1731C9.72343 80.3876 13.0454 85.4899 34.3686 64.1287L38.0898 60.4075L34.3686 56.6863C10.548 33.0935 11.1731 41.2162 11.1731 10.5847ZM21.9232 32.3331C31.0632 40.1454 43.8799 43.6078 46.5659 59.0844H51.6928C51.478 45.1684 67.1396 40.0791 78.0307 32.3331C56.443 34.6598 47.6383 35.9082 21.9232 32.3331ZM49.7909 76.5326C35.6936 76.4438 21.6928 83.6713 21.9646 98.4877H78.072C78.0824 84.0267 63.8883 76.6215 49.7909 76.5326Z" fill="#E153ED"/>
</svg>